<svg viewBox="0 0 467 242" fill="none" xmlns="http://www.w3.org/2000/svg">
<path fill-rule="evenodd" clip-rule="evenodd" d="M351.254 31.0602C351.013 31.0831 350.111 31.1636 349.249 31.239C343.712 31.723 337.565 33.6288 332.637 36.3886C329.162 38.3347 326.237 40.5615 323.496 43.3463C317.128 49.817 313.576 57.7505 313.086 66.5997L313 68.154H315.266H317.532L317.594 67.7417C317.628 67.5148 317.685 66.7013 317.722 65.9336C317.903 62.105 319.288 57.4319 321.332 53.753C326.893 43.7434 337.509 37.0489 349.813 35.7912C351.588 35.6098 355.812 35.61 357.583 35.7917C369 36.9634 378.959 42.8028 384.861 51.7863C386.664 54.5311 388.428 58.7186 389.084 61.815C389.446 63.523 389.727 65.824 389.727 67.082V68.154H390.473H391.22L391.292 68.6299C391.524 70.1419 391.654 70.6039 392.126 71.5799C392.543 72.4425 392.863 72.8768 393.725 73.7499C394.623 74.659 395.001 74.9398 395.993 75.431C397.709 76.2804 398.496 76.4623 400.442 76.4583C402.373 76.4544 403.495 76.1851 405.079 75.3465C406.469 74.6099 408.037 73.0268 408.683 71.7067C409.21 70.6301 409.527 69.5006 409.527 68.6984V68.154H408.775H408.024L408.021 68.5664C408.006 70.4627 406.372 72.9277 404.452 73.9471C401.329 75.6054 397.478 75.1941 395.039 72.9414C393.781 71.7805 392.86 69.9649 392.86 68.6483V68.154H393.625H394.391L394.309 66.8535C393.972 61.4911 392.9 57.321 390.724 52.9106C388.922 49.257 386.675 46.1374 383.686 43.1349C376.722 36.1407 367.139 31.8641 356.745 31.1111C355.039 30.9875 352.284 30.962 351.254 31.0602ZM349.797 40.8192C337.215 42.3637 326.991 50.922 324.267 62.1906C323.892 63.7406 323.559 66.1631 323.559 67.3358V68.154H325.292H327.025L327.173 66.4729C327.636 61.2092 329.685 56.6735 333.396 52.6919C337.013 48.8119 342.158 45.9591 347.594 44.8192C352.856 43.7159 358.29 44.0624 363.333 45.8231C370.729 48.4052 376.675 54.1217 379.049 60.9322C379.711 62.8306 380.315 66.167 380.327 67.9954C380.328 68.0827 380.441 68.154 380.579 68.154C380.803 68.154 380.829 68.2387 380.829 68.9622C380.829 70.8516 381.595 73.6909 382.676 75.8121C383.912 78.2378 386.309 80.9271 388.645 82.5088C391.684 84.5672 394.971 85.711 398.825 86.0513C400.816 86.2272 402.988 86.0656 405.141 85.5811C413.398 83.724 419.466 77.0778 420.012 69.294L420.092 68.154H418.845H417.599L417.453 69.4546C417.24 71.3512 416.88 72.5929 416.045 74.3078C415.149 76.1503 414.423 77.1418 412.861 78.6533C409.557 81.8514 405.303 83.5067 400.389 83.5067C396.966 83.5067 394.009 82.7331 391.19 81.1C388.565 79.5797 386.242 77.1922 384.936 74.6741C384.04 72.9457 383.336 70.2966 383.336 68.6524C383.336 68.2387 383.378 68.154 383.586 68.154C383.887 68.154 383.901 67.8881 383.706 65.8067C383.024 58.5113 379.163 51.7461 372.985 47.0222C368.47 43.5702 363.299 41.5083 357.396 40.8067C355.478 40.5788 351.704 40.5851 349.797 40.8192ZM351.582 50.2762C348.051 50.6533 344.816 51.8339 341.85 53.8278C339.524 55.392 337.058 58.2169 335.787 60.7746C334.831 62.699 334.087 65.5792 334.086 67.361L334.086 68.154H335.321H336.556L336.64 67.0438C337.146 60.3254 342.527 54.7084 350.001 53.0947C351.522 52.7663 355.876 52.7658 357.379 53.094C359.033 53.4551 360.355 53.9122 361.844 54.6389C366.694 57.0058 370.067 61.5002 370.675 66.407C370.865 67.9442 370.851 68.154 370.553 68.154C370.333 68.154 370.303 68.2387 370.303 68.8568C370.303 71.9679 371.305 76.0257 372.87 79.2562C378.757 91.4022 393.178 97.9865 407.302 94.977C415.126 93.3097 422.018 88.7171 426.227 82.3648C427.985 79.7117 429.476 76.1102 430.062 73.1024C430.342 71.6616 430.581 69.6523 430.581 68.73V68.154H428.836H427.092L427.016 69.0105C426.602 73.7169 425.59 76.8218 423.348 80.2713C416.084 91.4483 400.219 95.392 387.644 89.147C381.99 86.3396 377.557 81.6829 375.427 76.3137C374.561 74.1307 374.04 71.8089 373.861 69.3277C373.789 68.3389 373.742 68.154 373.562 68.154C373.381 68.154 373.336 67.9778 373.275 67.0438C373.023 63.1742 371.398 59.5081 368.604 56.5021C364.43 52.0128 357.851 49.6066 351.582 50.2762ZM351.923 59.9104C350.882 60.1002 349.335 60.7264 348.413 61.331C346.179 62.7956 344.879 64.8971 344.563 67.5514L344.492 68.154H345.304H346.116V67.6696C346.116 66.3801 346.856 64.8374 348.045 63.6445C349.461 62.2252 351.082 61.4933 353.134 61.3474C354.613 61.2422 356.032 61.5285 357.388 62.206C359.605 63.314 361.261 65.6712 361.277 67.7417L361.28 68.154H360.528H359.776L359.777 68.7567C359.781 70.7262 360.255 74.1803 360.842 76.5309C363.553 87.3724 371.868 96.8468 382.897 101.66C393.175 106.146 404.999 106.484 415.615 102.595C425.217 99.0784 433.207 92.0499 437.461 83.3795C439.654 78.9084 440.755 74.6434 441.04 69.518L441.116 68.154H438.793H436.471V69.2261C436.471 70.4091 436.19 72.8034 435.89 74.1809C433.4 85.6016 424.631 94.8435 412.547 98.7832C410.547 99.4352 408.52 99.9134 406.145 100.293C404.675 100.528 403.923 100.564 400.442 100.564C396.895 100.563 396.222 100.53 394.615 100.276C386.268 98.9571 379.221 95.4656 373.641 89.8849C368.072 84.3145 364.977 77.665 364.415 70.0573C364.345 69.1152 364.288 68.3016 364.288 68.2492C364.288 68.1968 363.949 68.154 363.536 68.154H362.784V67.6097C362.784 66.8176 362.469 65.6873 361.945 64.6014C361.306 63.2756 359.733 61.6894 358.335 60.9615C356.765 60.1444 355.812 59.8932 354.074 59.8391C353.247 59.8134 352.279 59.8455 351.923 59.9104Z" fill="white"/>
<path d="M75.824 163.928V162.928H75.0888L74.8695 163.63L75.824 163.928ZM87.824 163.928L88.8233 163.966L88.8626 162.928H87.824V163.928ZM79.664 184.28L78.9569 183.573L79.664 184.28ZM48.656 189.848L48.2787 190.774L48.2846 190.776L48.656 189.848ZM39.44 183.512L38.7083 184.194L38.7166 184.202L39.44 183.512ZM33.104 173.048L32.1642 173.39L32.1674 173.398L32.1707 173.407L33.104 173.048ZM33.008 143.768L32.0682 143.426L32.0653 143.434L33.008 143.768ZM39.152 133.208L38.4203 132.526L38.4121 132.535L39.152 133.208ZM79.184 132.152L78.4815 132.864L78.486 132.868L79.184 132.152ZM87.824 153.464V154.464H88.9027L88.8211 153.388L87.824 153.464ZM74.96 153.464L73.9635 153.548L74.0407 154.464H74.96V153.464ZM69.872 140.312L69.1811 141.035L69.1897 141.043L69.872 140.312ZM47.216 141.752L47.9876 142.388L47.9929 142.382L47.216 141.752ZM47.216 175.064L46.4391 175.694L46.445 175.701L46.4511 175.708L47.216 175.064ZM69.2 176.888L68.4929 176.181L69.2 176.888ZM75.824 164.928H87.824V162.928H75.824V164.928ZM86.8247 163.89C86.5126 172.131 83.8691 178.661 78.9569 183.573L80.3711 184.987C85.6989 179.659 88.4955 172.621 88.8233 163.966L86.8247 163.89ZM78.9569 183.573C74.0497 188.48 67.6608 190.96 59.696 190.96V192.96C68.1152 192.96 75.0383 190.32 80.3711 184.987L78.9569 183.573ZM59.696 190.96C55.9815 190.96 52.4277 190.28 49.0274 188.92L48.2846 190.776C51.9243 192.232 55.7305 192.96 59.696 192.96V190.96ZM49.0333 188.922C45.7136 187.569 42.7582 185.54 40.1634 182.822L38.7166 184.202C41.4978 187.116 44.6864 189.311 48.2787 190.774L49.0333 188.922ZM40.1716 182.83C37.6476 180.122 35.5986 176.748 34.0373 172.689L32.1707 173.407C33.8094 177.668 35.9844 181.27 38.7084 184.194L40.1716 182.83ZM34.0438 172.706C32.5559 168.614 31.8 163.838 31.8 158.36H29.8C29.8 164.018 30.5801 169.034 32.1642 173.39L34.0438 172.706ZM31.8 158.36C31.8 152.877 32.5251 148.131 33.9507 144.102L32.0653 143.434C30.5469 147.725 29.8 152.707 29.8 158.36H31.8ZM33.9478 144.11C35.4472 139.986 37.4338 136.585 39.8919 133.881L38.4121 132.535C35.7502 135.463 33.6408 139.102 32.0682 143.426L33.9478 144.11ZM39.8836 133.89C42.4088 131.18 45.3583 129.153 48.7394 127.8L47.9966 125.944C44.3377 127.407 41.1432 129.604 38.4204 132.526L39.8836 133.89ZM48.7394 127.8C52.1339 126.443 55.783 125.76 59.696 125.76V123.76C55.545 123.76 51.6421 124.485 47.9966 125.944L48.7394 127.8ZM59.696 125.76C67.4731 125.76 73.7033 128.147 78.4815 132.864L79.8865 131.44C74.6807 126.301 67.9189 123.76 59.696 123.76V125.76ZM78.486 132.868C83.3184 137.578 86.1353 144.424 86.8269 153.54L88.8211 153.388C88.1047 143.944 85.1616 136.582 79.882 131.436L78.486 132.868ZM87.824 152.464H74.96V154.464H87.824V152.464ZM75.9565 153.38C75.4346 147.183 73.6928 142.51 70.5543 139.581L69.1897 141.043C71.8112 143.49 73.4614 147.585 73.9635 153.548L75.9565 153.38ZM70.5629 139.589C67.4848 136.648 63.6802 135.184 59.216 135.184V137.184C63.1998 137.184 66.4992 138.472 69.1811 141.035L70.5629 139.589ZM59.216 135.184C53.938 135.184 49.6466 137.164 46.4391 141.122L47.9929 142.382C50.8014 138.916 54.51 137.184 59.216 137.184V135.184ZM46.4445 141.116C43.2251 145.02 41.704 150.829 41.704 158.36H43.704C43.704 151.043 45.1909 145.78 47.9875 142.388L46.4445 141.116ZM41.704 158.36C41.704 165.893 43.2259 171.728 46.4391 175.694L47.9929 174.434C45.1901 170.976 43.704 165.675 43.704 158.36H41.704ZM46.4511 175.708C49.7203 179.59 54.0043 181.536 59.216 181.536V179.536C54.5717 179.536 50.8557 177.834 47.9809 174.42L46.4511 175.708ZM59.216 181.536C63.6409 181.536 67.2465 180.256 69.9071 177.595L68.4929 176.181C66.2895 178.384 63.2391 179.536 59.216 179.536V181.536ZM69.9071 177.595C72.5768 174.925 74.8439 170.417 76.7785 164.226L74.8695 163.63C72.9641 169.727 70.8152 173.859 68.4929 176.181L69.9071 177.595ZM99.6935 191H98.6935V192H99.6935V191ZM99.6935 125.72V124.72H98.6935V125.72H99.6935ZM111.118 125.72H112.118V124.72H111.118V125.72ZM111.118 191V192H112.118V191H111.118ZM100.693 191V125.72H98.6935V191H100.693ZM99.6935 126.72H111.118V124.72H99.6935V126.72ZM110.118 125.72V191H112.118V125.72H110.118ZM111.118 190H99.6935V192H111.118V190ZM127.631 191H126.631V192H127.631V191ZM127.631 125.72V124.72H126.631V125.72H127.631ZM170.447 130.712L169.753 131.432L170.447 130.712ZM172.367 153.56L173.121 154.217L172.367 153.56ZM164.303 159.512L163.885 158.604L161.96 159.489L163.867 160.412L164.303 159.512ZM168.719 163.544L167.845 164.03L167.856 164.049L167.867 164.068L168.719 163.544ZM170.735 168.92L169.749 169.084L169.75 169.094L170.735 168.92ZM172.175 177.08L173.162 176.919L173.16 176.906L172.175 177.08ZM175.055 184.952L174.194 185.46L175.055 184.952ZM180.719 191V192H184.022L181.274 190.168L180.719 191ZM165.647 191L165.241 191.914L165.435 192H165.647V191ZM161.903 186.872L160.967 187.223L160.97 187.233L161.903 186.872ZM160.079 179.288L159.089 179.429L159.09 179.435L160.079 179.288ZM159.023 171.896L160.013 171.755L160.012 171.748L159.023 171.896ZM156.527 165.56L155.709 166.135L155.721 166.153L155.734 166.17L156.527 165.56ZM139.055 162.968V161.968H138.055V162.968H139.055ZM139.055 191V192H140.055V191H139.055ZM139.055 136.568V135.568H138.055V136.568H139.055ZM139.055 152.12H138.055V153.12H139.055V152.12ZM161.327 138.584L160.684 139.35L161.327 138.584ZM128.631 191V125.72H126.631V191H128.631ZM127.631 126.72H154.703V124.72H127.631V126.72ZM154.703 126.72C161.604 126.72 166.555 128.353 169.753 131.432L171.141 129.992C167.427 126.415 161.882 124.72 154.703 124.72V126.72ZM169.753 131.432C172.975 134.535 174.631 138.797 174.631 144.344H176.631C176.631 138.371 174.831 133.545 171.141 129.992L169.753 131.432ZM174.631 144.344C174.631 147.777 173.614 150.608 171.613 152.903L173.121 154.217C175.472 151.52 176.631 148.207 176.631 144.344H174.631ZM171.613 152.903C169.536 155.286 166.965 157.187 163.885 158.604L164.721 160.42C168.041 158.893 170.846 156.826 173.121 154.217L171.613 152.903ZM163.867 160.412C165.688 161.293 166.996 162.502 167.845 164.03L169.593 163.058C168.522 161.13 166.886 159.651 164.739 158.612L163.867 160.412ZM167.867 164.068C168.824 165.622 169.45 167.292 169.749 169.084L171.721 168.756C171.38 166.708 170.662 164.794 169.571 163.02L167.867 164.068ZM169.75 169.094L171.19 177.254L173.16 176.906L171.72 168.746L169.75 169.094ZM171.188 177.241C171.657 180.12 172.661 182.861 174.194 185.46L175.916 184.444C174.505 182.051 173.589 179.544 173.162 176.919L171.188 177.241ZM174.194 185.46C175.738 188.08 177.729 190.209 180.164 191.832L181.274 190.168C179.101 188.719 177.316 186.816 175.916 184.444L174.194 185.46ZM180.719 190H165.647V192H180.719V190ZM166.053 190.086C164.598 189.439 163.521 188.282 162.836 186.511L160.97 187.233C161.821 189.43 163.24 191.025 165.241 191.914L166.053 190.086ZM162.839 186.521C162.104 184.559 161.509 182.104 161.068 179.141L159.09 179.435C159.545 182.488 160.166 185.089 160.967 187.223L162.839 186.521ZM161.069 179.147L160.013 171.755L158.033 172.037L159.089 179.429L161.069 179.147ZM160.012 171.748C159.609 169.058 158.725 166.777 157.32 164.95L155.734 166.17C156.889 167.671 157.669 169.614 158.034 172.044L160.012 171.748ZM157.345 164.985C155.878 162.9 153.46 161.968 150.383 161.968V163.968C153.066 163.968 154.744 164.764 155.709 166.135L157.345 164.985ZM150.383 161.968H139.055V163.968H150.383V161.968ZM138.055 162.968V191H140.055V162.968H138.055ZM139.055 190H127.631V192H139.055V190ZM154.703 135.568H139.055V137.568H154.703V135.568ZM138.055 136.568V152.12H140.055V136.568H138.055ZM139.055 153.12H154.415V151.12H139.055V153.12ZM154.415 153.12C157.779 153.12 160.45 152.434 162.193 150.842L160.845 149.366C159.644 150.462 157.579 151.12 154.415 151.12V153.12ZM162.193 150.842C163.923 149.263 164.727 147.045 164.727 144.344H162.727C162.727 146.635 162.059 148.257 160.845 149.366L162.193 150.842ZM164.727 144.344C164.727 141.616 163.841 139.39 161.97 137.818L160.684 139.35C162.013 140.466 162.727 142.08 162.727 144.344H164.727ZM161.97 137.818C160.136 136.277 157.672 135.568 154.703 135.568V137.568C157.366 137.568 159.318 138.203 160.684 139.35L161.97 137.818ZM229.105 163.928V162.928H228.37L228.151 163.63L229.105 163.928ZM241.105 163.928L242.105 163.966L242.144 162.928H241.105V163.928ZM232.945 184.28L232.238 183.573L232.945 184.28ZM201.937 189.848L201.56 190.774L201.566 190.776L201.937 189.848ZM192.721 183.512L191.99 184.194L191.998 184.202L192.721 183.512ZM186.385 173.048L185.445 173.39L185.449 173.398L185.452 173.407L186.385 173.048ZM186.289 143.768L185.349 143.426L185.347 143.434L186.289 143.768ZM192.433 133.208L191.702 132.526L191.693 132.535L192.433 133.208ZM232.465 132.152L231.763 132.864L231.767 132.868L232.465 132.152ZM241.105 153.464V154.464H242.184L242.102 153.388L241.105 153.464ZM228.241 153.464L227.245 153.548L227.322 154.464H228.241V153.464ZM223.153 140.312L222.462 141.035L222.471 141.043L223.153 140.312ZM200.497 141.752L201.269 142.388L201.274 142.382L200.497 141.752ZM200.497 175.064L199.72 175.694L199.726 175.701L199.732 175.708L200.497 175.064ZM222.481 176.888L221.774 176.181L222.481 176.888ZM229.105 164.928H241.105V162.928H229.105V164.928ZM240.106 163.89C239.794 172.131 237.15 178.661 232.238 183.573L233.652 184.987C238.98 179.659 241.777 172.621 242.105 163.966L240.106 163.89ZM232.238 183.573C227.331 188.48 220.942 190.96 212.977 190.96V192.96C221.396 192.96 228.32 190.32 233.652 184.987L232.238 183.573ZM212.977 190.96C209.263 190.96 205.709 190.28 202.309 188.92L201.566 190.776C205.206 192.232 209.012 192.96 212.977 192.96V190.96ZM202.315 188.922C198.995 187.569 196.039 185.54 193.445 182.822L191.998 184.202C194.779 187.116 197.968 189.311 201.56 190.774L202.315 188.922ZM193.453 182.83C190.929 180.122 188.88 176.748 187.319 172.689L185.452 173.407C187.091 177.668 189.266 181.27 191.99 184.194L193.453 182.83ZM187.325 172.706C185.837 168.614 185.081 163.838 185.081 158.36H183.081C183.081 164.018 183.861 169.034 185.445 173.39L187.325 172.706ZM185.081 158.36C185.081 152.877 185.806 148.131 187.232 144.102L185.347 143.434C183.828 147.725 183.081 152.707 183.081 158.36H185.081ZM187.229 144.11C188.729 139.986 190.715 136.585 193.173 133.881L191.693 132.535C189.031 135.463 186.922 139.102 185.349 143.426L187.229 144.11ZM193.165 133.89C195.69 131.18 198.64 129.153 202.021 127.8L201.278 125.944C197.619 127.407 194.424 129.604 191.702 132.526L193.165 133.89ZM202.021 127.8C205.415 126.443 209.064 125.76 212.977 125.76V123.76C208.826 123.76 204.923 124.485 201.278 125.944L202.021 127.8ZM212.977 125.76C220.754 125.76 226.985 128.147 231.763 132.864L233.168 131.44C227.962 126.301 221.2 123.76 212.977 123.76V125.76ZM231.767 132.868C236.6 137.578 239.417 144.424 240.108 153.54L242.102 153.388C241.386 143.944 238.443 136.582 233.163 131.436L231.767 132.868ZM241.105 152.464H228.241V154.464H241.105V152.464ZM229.238 153.38C228.716 147.183 226.974 142.51 223.836 139.581L222.471 141.043C225.092 143.49 226.743 147.585 227.245 153.548L229.238 153.38ZM223.844 139.589C220.766 136.648 216.961 135.184 212.497 135.184V137.184C216.481 137.184 219.78 138.472 222.462 141.035L223.844 139.589ZM212.497 135.184C207.219 135.184 202.928 137.164 199.72 141.122L201.274 142.382C204.083 138.916 207.791 137.184 212.497 137.184V135.184ZM199.726 141.116C196.506 145.02 194.985 150.829 194.985 158.36H196.985C196.985 151.043 198.472 145.78 201.269 142.388L199.726 141.116ZM194.985 158.36C194.985 165.893 196.507 171.728 199.72 175.694L201.274 174.434C198.471 170.976 196.985 165.675 196.985 158.36H194.985ZM199.732 175.708C203.002 179.59 207.286 181.536 212.497 181.536V179.536C207.853 179.536 204.137 177.834 201.262 174.42L199.732 175.708ZM212.497 181.536C216.922 181.536 220.528 180.256 223.188 177.595L221.774 176.181C219.571 178.384 216.52 179.536 212.497 179.536V181.536ZM223.188 177.595C225.858 174.925 228.125 170.417 230.06 164.226L228.151 163.63C226.245 169.727 224.096 173.859 221.774 176.181L223.188 177.595ZM298.191 125.72H299.191V124.72H298.191V125.72ZM291.759 186.392L291.104 185.636L291.759 186.392ZM265.455 190.328L265.076 191.254L265.085 191.257L265.094 191.261L265.455 190.328ZM258.351 185.816L257.644 186.523L257.65 186.529L257.656 186.535L258.351 185.816ZM253.935 179.096L252.998 179.447L253.002 179.457L253.006 179.467L253.935 179.096ZM252.495 125.72V124.72H251.495V125.72H252.495ZM263.823 125.72H264.823V124.72H263.823V125.72ZM266.607 177.656L265.888 178.351L265.9 178.363L265.912 178.375L266.607 177.656ZM283.503 178.232L284.063 179.06L284.071 179.055L284.079 179.049L283.503 178.232ZM286.767 125.72V124.72H285.767V125.72H286.767ZM297.191 125.72V171.992H299.191V125.72H297.191ZM297.191 171.992C297.191 177.602 295.163 182.122 291.104 185.636L292.413 187.148C296.93 183.238 299.191 178.158 299.191 171.992H297.191ZM291.104 185.636C287.032 189.161 281.744 190.96 275.151 190.96V192.96C282.126 192.96 287.909 191.047 292.413 187.148L291.104 185.636ZM275.151 190.96C271.601 190.96 268.495 190.431 265.815 189.395L265.094 191.261C268.047 192.401 271.404 192.96 275.151 192.96V190.96ZM265.833 189.402C263.119 188.292 260.863 186.853 259.046 185.097L257.656 186.535C259.679 188.491 262.159 190.06 265.076 191.254L265.833 189.402ZM259.058 185.109C257.235 183.286 255.838 181.161 254.863 178.725L253.006 179.467C254.08 182.151 255.626 184.506 257.644 186.523L259.058 185.109ZM254.871 178.745C253.954 176.301 253.495 173.732 253.495 171.032H251.495C251.495 173.964 251.995 176.771 252.998 179.447L254.871 178.745ZM253.495 171.032V125.72H251.495V171.032H253.495ZM252.495 126.72H263.823V124.72H252.495V126.72ZM262.823 125.72V170.36H264.823V125.72H262.823ZM262.823 170.36C262.823 173.534 263.832 176.225 265.888 178.351L267.326 176.961C265.669 175.247 264.823 173.074 264.823 170.36H262.823ZM265.912 178.375C268.086 180.477 271.261 181.44 275.247 181.44V179.44C271.553 179.44 268.967 178.547 267.302 176.937L265.912 178.375ZM275.247 181.44C278.721 181.44 281.682 180.671 284.063 179.06L282.942 177.404C280.971 178.737 278.428 179.44 275.247 179.44V181.44ZM284.079 179.049C286.552 177.304 287.767 174.741 287.767 171.512H285.767C285.767 174.171 284.806 176.088 282.926 177.415L284.079 179.049ZM287.767 171.512V125.72H285.767V171.512H287.767ZM286.767 126.72H298.191V124.72H286.767V126.72ZM314.1 191H313.1V192H314.1V191ZM314.1 125.72V124.72H313.1V125.72H314.1ZM325.524 125.72H326.524V124.72H325.524V125.72ZM325.524 191V192H326.524V191H325.524ZM315.1 191V125.72H313.1V191H315.1ZM314.1 126.72H325.524V124.72H314.1V126.72ZM324.524 125.72V191H326.524V125.72H324.524ZM325.524 190H314.1V192H325.524V190ZM354.037 191H353.037V192H354.037V191ZM354.037 137.24H355.037V136.24H354.037V137.24ZM336.949 137.24H335.949V138.24H336.949V137.24ZM336.949 125.72V124.72H335.949V125.72H336.949ZM382.645 125.72H383.645V124.72H382.645V125.72ZM382.645 137.24V138.24H383.645V137.24H382.645ZM365.557 137.24V136.24H364.557V137.24H365.557ZM365.557 191V192H366.557V191H365.557ZM355.037 191V137.24H353.037V191H355.037ZM354.037 136.24H336.949V138.24H354.037V136.24ZM337.949 137.24V125.72H335.949V137.24H337.949ZM336.949 126.72H382.645V124.72H336.949V126.72ZM381.645 125.72V137.24H383.645V125.72H381.645ZM382.645 136.24H365.557V138.24H382.645V136.24ZM364.557 137.24V191H366.557V137.24H364.557ZM365.557 190H354.037V192H365.557V190ZM435.97 146.36V147.36H436.89L436.966 146.443L435.97 146.36ZM424.449 146.36L423.454 146.451L423.536 147.36H424.449V146.36ZM423.682 141.944L422.703 142.148L422.707 142.167L422.711 142.187L423.682 141.944ZM421.953 137.816L421.115 138.361L421.122 138.371L421.128 138.381L421.953 137.816ZM418.306 134.648L417.829 135.527L417.837 135.531L417.844 135.535L418.306 134.648ZM406.401 149.528L406.186 150.505L406.196 150.507L406.205 150.509L406.401 149.528ZM418.882 151.832L418.713 152.818L418.715 152.818L418.882 151.832ZM431.362 156.632L430.82 157.473L430.828 157.478L430.837 157.483L431.362 156.632ZM435.298 179.768L436.205 180.188L436.209 180.18L435.298 179.768ZM430.113 186.392L429.489 185.611L429.483 185.616L429.478 185.62L430.113 186.392ZM422.146 190.52L421.853 189.564L421.847 189.566L422.146 190.52ZM400.161 190.04L399.781 190.965L399.792 190.969L399.803 190.973L400.161 190.04ZM392.194 184.856L391.465 185.541L391.47 185.546L391.476 185.552L392.194 184.856ZM387.97 177.752L387.008 178.027L387.012 178.041L387.016 178.054L387.97 177.752ZM387.393 169.592V168.592H386.523L386.403 169.454L387.393 169.592ZM399.49 169.592L400.487 169.523L400.423 168.592H399.49V169.592ZM400.065 174.872L399.077 175.024L399.08 175.043L399.083 175.061L400.065 174.872ZM401.793 179.288L400.955 179.833L400.971 179.858L400.988 179.881L401.793 179.288ZM405.634 182.264L405.214 183.172L405.229 183.179L405.244 183.185L405.634 182.264ZM422.242 180.44L421.523 179.745L421.523 179.745L422.242 180.44ZM419.362 166.04L419.115 167.009L419.119 167.01L419.362 166.04ZM406.882 163.352L406.688 164.333L406.701 164.336L406.882 163.352ZM394.306 158.36L393.754 159.194L393.762 159.2L393.77 159.205L394.306 158.36ZM390.273 136.376L391.178 136.803L391.182 136.793L390.273 136.376ZM394.882 130.328L395.524 131.094L395.526 131.092L394.882 130.328ZM402.273 126.296L402.59 127.245L402.599 127.242L402.609 127.238L402.273 126.296ZM423.105 126.392L422.778 127.337L422.784 127.339L423.105 126.392ZM430.882 130.904L431.577 130.185V130.185L430.882 130.904ZM435.105 137.816L434.15 138.112L434.152 138.118L435.105 137.816ZM435.97 145.36H424.449V147.36H435.97V145.36ZM425.445 146.269C425.312 144.805 425.047 143.282 424.652 141.701L422.711 142.187C423.084 143.678 423.331 145.099 423.454 146.451L425.445 146.269ZM424.66 141.74C424.315 140.083 423.69 138.583 422.779 137.251L421.128 138.381C421.881 139.481 422.408 140.733 422.703 142.148L424.66 141.74ZM422.792 137.271C421.85 135.822 420.492 134.658 418.767 133.761L417.844 135.535C419.319 136.302 420.393 137.25 421.115 138.361L422.792 137.271ZM418.782 133.769C417.044 132.828 414.779 132.4 412.065 132.4V134.4C414.6 134.4 416.495 134.804 417.829 135.527L418.782 133.769ZM412.065 132.4C408.099 132.4 404.957 133.289 402.84 135.26L404.203 136.724C405.798 135.239 408.352 134.4 412.065 134.4V132.4ZM402.84 135.26C400.779 137.179 399.737 139.589 399.737 142.424H401.737C401.737 140.139 402.552 138.261 404.203 136.724L402.84 135.26ZM399.737 142.424C399.737 144.536 400.25 146.345 401.372 147.751C402.494 149.159 404.138 150.053 406.186 150.505L406.617 148.551C404.889 148.171 403.701 147.465 402.935 146.505C402.169 145.543 401.737 144.216 401.737 142.424H399.737ZM406.205 150.509C410.056 151.279 414.225 152.048 418.713 152.818L419.05 150.846C414.578 150.08 410.427 149.313 406.598 148.547L406.205 150.509ZM418.715 152.818C423.129 153.564 427.161 155.116 430.82 157.473L431.903 155.791C428.01 153.284 423.722 151.636 419.048 150.846L418.715 152.818ZM430.837 157.483C434.238 159.581 436.121 163.873 436.121 170.84H438.121C438.121 163.599 436.165 158.419 431.886 155.781L430.837 157.483ZM436.121 170.84C436.121 173.977 435.538 176.811 434.386 179.356L436.209 180.18C437.489 177.349 438.121 174.231 438.121 170.84H436.121ZM434.39 179.348C433.239 181.832 431.607 183.917 429.489 185.611L430.738 187.173C433.1 185.283 434.924 182.952 436.205 180.188L434.39 179.348ZM429.478 185.62C427.418 187.316 424.884 188.636 421.853 189.564L422.438 191.476C425.679 190.484 428.457 189.052 430.749 187.164L429.478 185.62ZM421.847 189.566C418.884 190.492 415.626 190.96 412.065 190.96V192.96C415.801 192.96 419.263 192.468 422.444 191.474L421.847 189.566ZM412.065 190.96C407.546 190.96 403.706 190.332 400.52 189.107L399.803 190.973C403.273 192.308 407.369 192.96 412.065 192.96V190.96ZM400.542 189.115C397.38 187.813 394.847 186.156 392.911 184.16L391.476 185.552C393.636 187.78 396.415 189.579 399.781 190.965L400.542 189.115ZM392.922 184.171C391.035 182.163 389.707 179.924 388.923 177.45L387.016 178.054C387.896 180.828 389.384 183.325 391.465 185.541L392.922 184.171ZM388.931 177.477C388.201 174.923 388.019 172.343 388.384 169.73L386.403 169.454C386 172.345 386.202 175.205 387.008 178.027L388.931 177.477ZM387.393 170.592H399.49V168.592H387.393V170.592ZM398.492 169.661C398.622 171.542 398.816 173.33 399.077 175.024L401.054 174.72C400.803 173.086 400.613 171.354 400.487 169.523L398.492 169.661ZM399.083 175.061C399.425 176.838 400.045 178.433 400.955 179.833L402.632 178.743C401.878 177.583 401.346 176.234 401.048 174.683L399.083 175.061ZM400.988 179.881C402.004 181.259 403.43 182.348 405.214 183.172L406.053 181.356C404.509 180.644 403.375 179.749 402.599 178.695L400.988 179.881ZM405.244 183.185C407.083 183.963 409.506 184.32 412.449 184.32V182.32C409.633 182.32 407.512 181.973 406.023 181.343L405.244 183.185ZM412.449 184.32C417.204 184.32 420.816 183.353 422.96 181.135L421.523 179.745C419.955 181.367 417.039 182.32 412.449 182.32V184.32ZM422.96 181.135C425.04 178.987 426.121 176.504 426.121 173.72H424.121C424.121 175.928 423.283 177.925 421.523 179.745L422.96 181.135ZM426.121 173.72C426.121 171.489 425.606 169.579 424.482 168.08C423.353 166.576 421.693 165.592 419.604 165.07L419.119 167.01C420.87 167.448 422.09 168.224 422.882 169.28C423.677 170.341 424.121 171.791 424.121 173.72H426.121ZM419.608 165.071C415.806 164.104 411.624 163.204 407.062 162.368L406.701 164.336C411.227 165.164 415.365 166.056 419.115 167.009L419.608 165.071ZM407.075 162.371C402.65 161.498 398.574 159.88 394.841 157.515L393.77 159.205C397.717 161.704 402.025 163.414 406.688 164.333L407.075 162.371ZM394.857 157.526C391.494 155.303 389.642 150.927 389.642 143.96H387.642C387.642 151.201 389.565 156.425 393.754 159.194L394.857 157.526ZM389.642 143.96C389.642 141.344 390.158 138.963 391.178 136.803L389.369 135.949C388.213 138.397 387.642 141.072 387.642 143.96H389.642ZM391.182 136.793C392.209 134.559 393.654 132.662 395.524 131.094L394.239 129.562C392.141 131.322 390.514 133.457 389.365 135.958L391.182 136.793ZM395.526 131.092C397.465 129.456 399.814 128.17 402.59 127.245L401.957 125.347C398.973 126.342 396.394 127.744 394.237 129.564L395.526 131.092ZM402.609 127.238C405.368 126.257 408.421 125.76 411.777 125.76V123.76C408.222 123.76 404.939 124.287 401.938 125.354L402.609 127.238ZM411.777 125.76C416.117 125.76 419.775 126.295 422.778 127.337L423.433 125.447C420.164 124.313 416.27 123.76 411.777 123.76V125.76ZM422.784 127.339C425.874 128.39 428.329 129.826 430.186 131.623L431.577 130.185C429.466 128.142 426.737 126.57 423.427 125.445L422.784 127.339ZM430.186 131.623C432.047 133.423 433.367 135.581 434.15 138.112L436.061 137.52C435.18 134.675 433.684 132.225 431.577 130.185L430.186 131.623ZM434.152 138.118C434.94 140.604 435.219 143.319 434.973 146.277L436.966 146.443C437.232 143.257 436.935 140.276 436.059 137.514L434.152 138.118Z" fill="white"/>
<path d="M86.032 57.36H74.512C74.384 55.952 74.128 54.48 73.744 52.944C73.424 51.408 72.848 50.032 72.016 48.816C71.184 47.536 69.968 46.48 68.368 45.648C66.832 44.816 64.752 44.4 62.128 44.4C58.288 44.4 55.44 45.264 53.584 46.992C51.728 48.72 50.8 50.864 50.8 53.424C50.8 57.328 52.688 59.696 56.464 60.528C60.304 61.296 64.464 62.064 68.944 62.832C73.488 63.6 77.648 65.2 81.424 67.632C85.264 70 87.184 74.736 87.184 81.84C87.184 85.104 86.576 88.08 85.36 90.768C84.144 93.392 82.416 95.6 80.176 97.392C78 99.184 75.344 100.56 72.208 101.52C69.136 102.48 65.776 102.96 62.128 102.96C57.52 102.96 53.552 102.32 50.224 101.04C46.96 99.696 44.304 97.968 42.256 95.856C40.272 93.744 38.864 91.376 38.032 88.752C37.264 86.064 37.072 83.344 37.456 80.592H49.552C49.68 82.448 49.872 84.208 50.128 85.872C50.448 87.536 51.024 89.008 51.856 90.288C52.752 91.504 54.032 92.496 55.696 93.264C57.36 93.968 59.632 94.32 62.512 94.32C67.184 94.32 70.448 93.36 72.304 91.44C74.224 89.456 75.184 87.216 75.184 84.72C75.184 80.56 73.264 78 69.424 77.04C65.648 76.08 61.488 75.184 56.944 74.352C52.4 73.456 48.208 71.792 44.368 69.36C40.592 66.864 38.704 62.064 38.704 54.96C38.704 52.208 39.248 49.68 40.336 47.376C41.424 45.008 42.96 42.992 44.944 41.328C46.992 39.6 49.456 38.256 52.336 37.296C55.216 36.272 58.384 35.76 61.84 35.76C66.256 35.76 70.032 36.304 73.168 37.392C76.368 38.48 78.96 39.984 80.944 41.904C82.928 43.824 84.336 46.128 85.168 48.816C86 51.44 86.288 54.288 86.032 57.36ZM124.23 102.96C120.198 102.96 116.422 102.192 112.902 100.656C109.382 99.056 106.31 96.816 103.686 93.936C101.062 90.992 98.9815 87.44 97.4455 83.28C95.9735 79.12 95.2375 74.48 95.2375 69.36C95.2375 64.24 95.9735 59.6 97.4455 55.44C98.9815 51.28 101.03 47.76 103.59 44.88C106.214 41.936 109.286 39.696 112.806 38.16C116.39 36.56 120.198 35.76 124.23 35.76C128.262 35.76 132.07 36.56 135.654 38.16C139.238 39.696 142.342 41.936 144.966 44.88C147.59 47.76 149.638 51.28 151.11 55.44C152.646 59.6 153.414 64.24 153.414 69.36C153.414 74.48 152.646 79.12 151.11 83.28C149.574 87.44 147.494 90.992 144.87 93.936C142.246 96.816 139.142 99.056 135.558 100.656C132.038 102.192 128.262 102.96 124.23 102.96ZM124.23 91.536C129.222 91.536 133.318 89.584 136.518 85.68C139.782 81.712 141.414 76.272 141.414 69.36C141.414 62.448 139.782 57.04 136.518 53.136C133.318 49.168 129.222 47.184 124.23 47.184C119.238 47.184 115.142 49.168 111.942 53.136C108.742 57.04 107.142 62.448 107.142 69.36C107.142 76.272 108.742 81.712 111.942 85.68C115.142 89.584 119.238 91.536 124.23 91.536ZM166.381 102V36.72H205.261V47.568H177.805V60.912H202.669V71.76H177.805V96.432C177.805 97.584 177.837 98.64 177.901 99.6C177.965 100.56 178.125 101.36 178.381 102H166.381ZM228.444 102V48.24H211.355V36.72H257.052V48.24H239.964V102H228.444Z" fill="white"/>
<rect x="0.5" y="0.5" width="466" height="241" rx="19.5" stroke="white"/>
</svg>
